<svg id="Layer_1" enable-background="new 0 0 512 512" height="512" viewBox="0 0 512 512" width="512" xmlns="http://www.w3.org/2000/svg"><g><path d="m416.667 0h-112.467c-26.62 0-48.2 21.58-48.2 48.2 0-26.62-21.58-48.2-48.2-48.2h-112.467c-8.284 0-15 6.716-15 15v192.8c0 8.284 6.716 15 15 15h112.467c18.307 0 33.2 14.894 33.2 33.2 0 8.284 6.716 15 15 15s15-6.716 15-15c0-18.307 14.894-33.2 33.2-33.2h112.466c8.284 0 15-6.716 15-15v-192.8c.001-8.284-6.715-15-14.999-15z" fill="#f5fafa"/><path d="m256 271c8.284 0 15-6.716 15-15 0-18.307 14.894-33.2 33.2-33.2h112.466c8.284 0 15-6.716 15-15v-192.8c0-8.284-6.716-15-15-15h-112.466c-26.62 0-48.2 21.58-48.2 48.2z" fill="#e1f0f0"/><path d="m191.733 94.267h-32.133c-8.284 0-15-6.716-15-15s6.716-15 15-15h32.133c8.284 0 15 6.716 15 15s-6.715 15-15 15z" fill="#4b0a37"/><path d="m352.4 94.267h-32.133c-8.284 0-15-6.716-15-15s6.716-15 15-15h32.133c8.284 0 15 6.716 15 15s-6.716 15-15 15z" fill="#230519"/><path d="m191.733 158.533h-32.133c-8.284 0-15-6.716-15-15s6.716-15 15-15h32.133c8.284 0 15 6.716 15 15s-6.715 15-15 15z" fill="#4b0a37"/><path d="m352.4 158.533h-32.133c-8.284 0-15-6.716-15-15s6.716-15 15-15h32.133c8.284 0 15 6.716 15 15s-6.716 15-15 15z" fill="#230519"/><path d="m195.054 329.257-33.836-16.918c-.372-.186-20.189-11.434-33.969 2.346-3.464 3.464-14.474 17.877 1.029 33.38l41.927 41.928c5.859 5.858 5.857 15.357 0 21.213-5.858 5.859-15.357 5.857-21.213 0l-48.22-48.22c-.004-.004-.008-.007-.012-.011-.003-.003-.006-.006-.009-.01-.002-.001-.003-.003-.005-.005-1.03-1.039-1.878-2.191-2.542-3.417l-74.023-129.528c-1.784-3.121-5.094-5.057-8.689-5.08-10.748-.07-17.103 9.403-15.137 18.252l32.134 144.6c.619 2.785 2.019 5.335 4.036 7.353l75.94 75.94v25.92c0 8.284 6.716 15 15 15h96.4c8.284 0 15-6.716 15-15v-96.855c0-30.019-16.961-57.463-43.811-70.888z" fill="#ffd2c8"/><path d="m316.946 329.257 33.836-16.918c.372-.186 20.189-11.434 33.969 2.346 3.464 3.464 14.474 17.877-1.029 33.38l-41.927 41.928c-5.859 5.858-5.857 15.357 0 21.213 5.858 5.859 15.357 5.857 21.213 0l48.22-48.22c.004-.004.008-.007.012-.011.003-.003.006-.006.009-.01.002-.001.003-.003.005-.005 1.03-1.039 1.878-2.191 2.542-3.417l74.022-129.529c1.784-3.121 5.094-5.057 8.689-5.08 10.748-.07 17.103 9.403 15.137 18.252l-32.134 144.6c-.619 2.785-2.019 5.335-4.036 7.353l-75.94 75.94v25.921c0 8.284-6.716 15-15 15h-96.4c-8.284 0-15-6.716-15-15v-96.855c.001-30.019 16.962-57.463 43.812-70.888z" fill="#ffb4b4"/></g></svg>